<?xml version="1.0" encoding="utf-8"?>
<!-- Svg Vector Icons : http://www.onlinewebfonts.com/icon -->
<!DOCTYPE svg PUBLIC "-//W3C//DTD SVG 1.1//EN" "http://www.w3.org/Graphics/SVG/1.1/DTD/svg11.dtd">
<svg version="1.1" xmlns="http://www.w3.org/2000/svg" xmlns:xlink="http://www.w3.org/1999/xlink" x="0px" y="0px" viewBox="0 0 1000 1000" enable-background="new 0 0 1000 1000" xml:space="preserve">
<metadata> Svg Vector Icons : http://www.onlinewebfonts.com/icon </metadata>
<g><path d="M536.3,990c-6.4,0-12.9-0.2-19.6-0.5c-20.9-1.1-37-19-35.9-40c1.1-20.9,19-37,40-35.9c54.3,2.9,86.6-8,115-39c33.2-36.2,61.9-101.6,94.9-188.7c71.3-188.4,143.5-409,172.2-498.1l-487.1-97L244.2,561.3c-7.2,19.7-29,29.8-48.7,22.7c-19.7-7.2-29.9-29-22.7-48.7L355.6,34.2c6.4-17.6,24.7-27.9,43.1-24.2l560.8,111.7c10.6,2.1,19.8,8.6,25.3,17.9c5.5,9.3,6.8,20.5,3.5,30.7c-0.9,3-94.4,299.2-186.4,542.5c-37.1,98.1-68.5,167.9-110,213.2C651.6,969.8,603.1,990,536.3,990z"/><path d="M540,990.4c-46.3,4.2-100.6-22-100.6-22L123.1,824.8c0,0-149.6-46.8-104.6-241.4l432,174.6c0,0-16.6,172.5,118.6,153.5C593.2,936,583.3,982.6,540,990.4z"/><path d="M740.3,376c-3.3,0-6.7-0.4-10-1.4l-165.8-45.4c-20.2-5.5-32.1-26.4-26.6-46.6c5.5-20.2,26.4-32.1,46.6-26.6l165.8,45.4c20.2,5.5,32.1,26.4,26.6,46.6C772.3,364.9,757,376,740.3,376z"/><path d="M673.1,540.7c-3.9,0-7.9-0.6-11.8-1.9L496,484.6c-19.9-6.5-30.8-28-24.2-47.9c6.5-19.9,28-30.8,47.9-24.2l165.2,54.2c19.9,6.5,30.8,28,24.2,47.9C703.9,530.6,689,540.7,673.1,540.7z"/><path d="M611,694c-3.9,0-7.9-0.6-11.8-1.9l-165.2-54.2c-19.9-6.5-30.8-28-24.2-47.9c6.5-19.9,28-30.8,47.9-24.2l165.2,54.2c19.9,6.5,30.8,28,24.2,47.9C641.8,683.8,626.9,694,611,694z"/><path d="M462.9,296.2c-2.6,0-5.2-0.3-7.9-0.8l-1.9-0.4c-1.4-0.3-2.7-0.6-4.1-0.9c-20.5-4.4-33.5-24.6-29.1-45.1c4.4-20.5,24.6-33.5,45.1-29.1c1.2,0.3,2.4,0.5,3.7,0.8l2,0.4c20.5,4.3,33.6,24.5,29.3,45C496.2,283.9,480.5,296.2,462.9,296.2z"/><path d="M403.6,453.5c-2.6,0-5.2-0.3-7.9-0.8l-1.8-0.4c-1.4-0.3-2.8-0.6-4.1-0.9c-20.5-4.4-33.5-24.6-29.1-45.1c4.4-20.5,24.6-33.5,45.1-29.1c1.2,0.3,2.5,0.5,3.7,0.8l1.9,0.4c20.5,4.3,33.6,24.5,29.3,45C436.9,441.2,421.2,453.5,403.6,453.5z"/><path d="M343.2,599.3c-2.6,0-5.3-0.3-7.9-0.8l-2-0.4c-1.3-0.3-2.6-0.6-3.9-0.8c-20.5-4.4-33.5-24.6-29.1-45.1c4.4-20.5,24.6-33.5,45.1-29.1c1.1,0.2,2.3,0.5,3.5,0.7l2.1,0.5c20.5,4.3,33.6,24.5,29.3,45C376.6,587,360.8,599.3,343.2,599.3z"/></g>
</svg>